<svg xmlns="http://www.w3.org/2000/svg" xmlns:xlink="http://www.w3.org/1999/xlink" width="550" zoomAndPan="magnify" viewBox="0 0 412.5 91.5" height="122" preserveAspectRatio="xMidYMid meet" version="1.0"><defs><g/><clipPath id="5756dff2b7"><path d="M 0.871094 0 L 411.128906 0 L 411.128906 91.003906 L 0.871094 91.003906 Z M 0.871094 0 " clip-rule="nonzero"/></clipPath><clipPath id="5c7333b8b5"><path d="M 0.871094 0 L 194.253906 0 L 194.253906 91 L 0.871094 91 Z M 0.871094 0 " clip-rule="nonzero"/></clipPath></defs><g clip-path="url(#5756dff2b7)"><path fill="#ffffff" d="M 0.871094 0 L 411.628906 0 L 411.628906 97.835938 L 0.871094 97.835938 Z M 0.871094 0 " fill-opacity="1" fill-rule="nonzero"/><path fill="#ffffff" d="M 0.871094 0 L 411.628906 0 L 411.628906 91.113281 L 0.871094 91.113281 Z M 0.871094 0 " fill-opacity="1" fill-rule="nonzero"/><path fill="#ffffff" d="M 0.871094 0 L 411.628906 0 L 411.628906 91.113281 L 0.871094 91.113281 Z M 0.871094 0 " fill-opacity="1" fill-rule="nonzero"/></g><g fill="#6caf17" fill-opacity="1"><g transform="translate(17.617581, 63.106971)"><g/></g></g><g fill="#6caf17" fill-opacity="1"><g transform="translate(40.47056, 63.106971)"><g/></g></g><g fill="#6caf17" fill-opacity="1"><g transform="translate(63.323539, 63.106971)"><g/></g></g><g fill="#6caf17" fill-opacity="1"><g transform="translate(86.176521, 63.106971)"><g/></g></g><g fill="#6caf17" fill-opacity="1"><g transform="translate(109.029497, 63.106971)"><g/></g></g><g fill="#6caf17" fill-opacity="1"><g transform="translate(131.882473, 63.106971)"><g/></g></g><g fill="#6caf17" fill-opacity="1"><g transform="translate(154.735449, 63.106971)"><g/></g></g><g fill="#6caf17" fill-opacity="1"><g transform="translate(177.588425, 63.106971)"><g/></g></g><g fill="#000000" fill-opacity="1"><g transform="translate(200.438744, 63.106971)"><g><path d="M 46.113281 0 L 39.410156 -34.535156 L 30.367188 -34.535156 L 23.207031 -10.308594 L 15.996094 -34.535156 L 6.957031 -34.535156 L 0.253906 0 L 8.632812 0 L 12.695312 -23.816406 L 19.449219 0 L 26.914062 0 L 33.671875 -23.816406 L 37.734375 0 Z M 46.113281 0 "/></g></g></g><g fill="#000000" fill-opacity="1"><g transform="translate(256.96176, 63.106971)"><g><path d="M 23.207031 -34.535156 L 23.207031 -14.574219 C 23.207031 -9.800781 21.785156 -7.109375 16.554688 -7.109375 C 11.375 -7.109375 9.902344 -9.800781 9.902344 -14.574219 L 9.902344 -34.535156 L 2.285156 -34.535156 L 2.285156 -13.457031 C 2.285156 -4.265625 7.566406 0.507812 16.554688 0.507812 C 25.542969 0.507812 30.824219 -4.265625 30.824219 -13.457031 L 30.824219 -34.535156 Z M 23.207031 -34.535156 "/></g></g></g><g fill="#000000" fill-opacity="1"><g transform="translate(300.230048, 63.106971)"><g><path d="M 16.453125 -5.382812 C 12.695312 -5.382812 9.445312 -7.261719 9.242188 -11.375 L 1.523438 -11.375 C 1.574219 -2.945312 8.53125 0.8125 16.148438 0.8125 C 23.207031 0.8125 30.46875 -2.183594 30.46875 -10.308594 C 30.46875 -23.460938 10.511719 -19.042969 10.511719 -25.1875 C 10.511719 -27.777344 13.507812 -28.792969 15.640625 -28.792969 C 19.449219 -28.792969 21.53125 -27.625 21.9375 -24.019531 L 29.300781 -24.019531 C 29.046875 -31.890625 22.648438 -35.042969 15.539062 -35.042969 C 9.242188 -35.042969 2.640625 -31.6875 2.640625 -24.578125 C 2.640625 -11.832031 22.597656 -16.148438 22.597656 -9.445312 C 22.597656 -6.347656 18.839844 -5.382812 16.453125 -5.382812 Z M 16.453125 -5.382812 "/></g></g></g><g fill="#000000" fill-opacity="1"><g transform="translate(342.38108, 63.106971)"><g><path d="M 10.664062 0 L 10.664062 -34.535156 L 3.046875 -34.535156 L 3.046875 0 Z M 10.664062 0 "/></g></g></g><g fill="#000000" fill-opacity="1"><g transform="translate(366.249743, 63.106971)"><g><path d="M 27.980469 -11.730469 C 26.558594 -8.683594 23.105469 -6.601562 19.550781 -6.601562 C 13.964844 -6.601562 9.496094 -11.375 9.496094 -17.265625 C 9.496094 -23.105469 13.964844 -27.929688 19.550781 -27.929688 C 23.054688 -27.929688 26.507812 -26 27.929688 -22.902344 L 36.414062 -22.902344 C 34.078125 -29.960938 27.421875 -35.042969 19.550781 -35.042969 C 9.75 -35.042969 1.777344 -27.066406 1.777344 -17.265625 C 1.777344 -7.464844 9.75 0.507812 19.550781 0.507812 C 27.421875 0.507812 34.128906 -4.621094 36.464844 -11.730469 Z M 27.980469 -11.730469 "/></g></g></g><g clip-path="url(#5c7333b8b5)"><path fill="#6caf17" d="M 0.871094 0 L 194.34375 0 L 194.34375 90.96875 L 0.871094 90.96875 Z M 0.871094 0 " fill-opacity="1" fill-rule="nonzero"/></g><g fill="#ffffff" fill-opacity="1"><g transform="translate(15.40277, 63.106971)"><g><path d="M 19.703125 -10.105469 C 19.703125 -7.820312 17.773438 -5.941406 15.488281 -5.941406 L 10.664062 -5.941406 L 10.664062 -14.269531 L 15.488281 -14.269531 C 17.773438 -14.269531 19.703125 -12.339844 19.703125 -10.105469 Z M 17.316406 -24.527344 C 17.316406 -22.34375 15.488281 -20.515625 13.304688 -20.515625 L 10.664062 -20.515625 L 10.664062 -28.539062 L 13.304688 -28.539062 C 15.488281 -28.539062 17.316406 -26.761719 17.316406 -24.527344 Z M 27.472656 -9.902344 C 27.472656 -14.574219 24.324219 -17.671875 20.464844 -18.585938 C 23.054688 -19.753906 24.578125 -22.394531 24.578125 -25.898438 C 24.578125 -30.621094 20.820312 -34.535156 14.929688 -34.535156 L 3.046875 -34.535156 L 3.046875 0 L 17.011719 0 C 23.613281 0 27.472656 -3.960938 27.472656 -9.902344 Z M 27.472656 -9.902344 "/></g></g></g><g fill="#ffffff" fill-opacity="1"><g transform="translate(53.54185, 63.106971)"><g><path d="M 23.054688 -6.90625 L 10.664062 -6.90625 L 10.664062 -13.863281 L 22.546875 -13.863281 L 22.546875 -20.769531 L 10.664062 -20.769531 L 10.664062 -27.625 L 23.054688 -27.625 L 23.054688 -34.535156 L 3.046875 -34.535156 L 3.046875 0 L 23.054688 0 Z M 23.054688 -6.90625 "/></g></g></g><g fill="#ffffff" fill-opacity="1"><g transform="translate(89.801905, 63.106971)"><g><path d="M 13.152344 0 L 20.769531 0 L 20.769531 -16.503906 L 33.519531 -34.535156 L 24.425781 -34.535156 L 16.960938 -22.597656 L 9.496094 -34.535156 L 0.40625 -34.535156 L 13.152344 -16.503906 Z M 13.152344 0 "/></g></g></g><g fill="#ffffff" fill-opacity="1"><g transform="translate(133.882757, 63.106971)"><g><path d="M 21.835938 -13.203125 L 13.101562 -13.203125 L 17.46875 -25.492188 Z M 34.738281 0 L 20.71875 -34.535156 L 14.269531 -34.535156 L 0.253906 0 L 8.429688 0 L 10.917969 -6.957031 L 24.070312 -6.957031 L 26.558594 0 Z M 34.738281 0 "/></g></g></g></svg>